<?xml version="1.0" encoding="UTF-8"?>
<svg width="898px" height="158px" viewBox="0 0 898 158" version="1.1" xmlns="http://www.w3.org/2000/svg" xmlns:xlink="http://www.w3.org/1999/xlink">
    <!-- Generator: Sketch 64 (93537) - https://sketch.com -->
    <title>banner</title>
    <desc>Created with Sketch.</desc>
    <defs>
        <filter x="-1.3%" y="-7.9%" width="102.7%" height="115.9%" filterUnits="objectBoundingBox" id="filter-1">
            <feOffset dx="0" dy="2" in="SourceAlpha" result="shadowOffsetOuter1"></feOffset>
            <feGaussianBlur stdDeviation="2" in="shadowOffsetOuter1" result="shadowBlurOuter1"></feGaussianBlur>
            <feColorMatrix values="0 0 0 0 0.207286005   0 0 0 0 0.202775323   0 0 0 0 0.202775323  0 0 0 1 0" type="matrix" in="shadowBlurOuter1" result="shadowMatrixOuter1"></feColorMatrix>
            <feMerge>
                <feMergeNode in="shadowMatrixOuter1"></feMergeNode>
                <feMergeNode in="SourceGraphic"></feMergeNode>
            </feMerge>
        </filter>
        <linearGradient x1="93.04688%" y1="50.9867645%" x2="11.5337922%" y2="50%" id="linearGradient-2">
            <stop stop-color="#8E1C64" offset="0%"></stop>
            <stop stop-color="#DD278F" offset="100%"></stop>
        </linearGradient>
        <linearGradient x1="14.6116224%" y1="50.7405927%" x2="94.1379454%" y2="52.4042266%" id="linearGradient-3">
            <stop stop-color="#BD2583" offset="0%"></stop>
            <stop stop-color="#AD1E71" offset="100%"></stop>
        </linearGradient>
        <text id="text-4" font-family="Apple-Chancery, Apple Chancery" font-size="48" font-weight="normal" fill="#FFFFFF">
            <tspan x="292.140625" y="138">Colouring Book</tspan>
        </text>
        <filter x="-2.1%" y="-6.6%" width="104.2%" height="118.4%" filterUnits="objectBoundingBox" id="filter-5">
            <feOffset dx="0" dy="2" in="SourceAlpha" result="shadowOffsetOuter1"></feOffset>
            <feGaussianBlur stdDeviation="2" in="shadowOffsetOuter1" result="shadowBlurOuter1"></feGaussianBlur>
            <feColorMatrix values="0 0 0 0 0   0 0 0 0 0   0 0 0 0 0  0 0 0 0.5 0" type="matrix" in="shadowBlurOuter1"></feColorMatrix>
        </filter>
    </defs>
    <g id="Page-1" stroke="none" stroke-width="1" fill="none" fill-rule="evenodd">
        <g id="Desktop-HD" transform="translate(-271.000000, -33.000000)">
            <g id="banner" transform="translate(275.000000, 26.000000)">
                <g id="Group-2" filter="url(#filter-1)" transform="translate(0.000000, 9.000000)">
                    <g id="Group-3" transform="translate(0.000000, 35.862500)">
                        <polygon id="Path-7" fill="#8C2066" points="215.414013 83.5675403 223.917197 84.4960685 231.475584 86.353125 237.144374 89.1387097 246.592357 94.709879 246.592357 101.209577 245.647558 104.92369 240.923567 108.637802 233.36518 111.423387 225.806794 113.280444 217.303609 114.208972 208.800425 113.280444 202.186837 112.351915 196.518047 109.566331 192.738854 104.92369 195.573248 100.281048 202.186837 97.4954637 208.800425 96.5669355 217.303609 96.5669355 223.917197 97.4954637 222.972399 93.7813508 220.138004 90.9957661"></polygon>
                        <path d="M180.456476,73.3537298 L177.622081,80.7819556 L171.953291,85.4245968 L159.670913,89.1387097 L145.498938,90.9957661 L131.326964,89.1387097 L113.375796,85.4245968 L103.927813,83.5675403 L90.7006369,80.7819556 L77.4734607,78.9248992 L64.2462845,78.9248992 L52.9087049,80.7819556 L45.3503185,85.4245968 L39.6815287,90.9957661 L39.6815287,93.7813508 L0,16.7135081 L4.72399151,7.42822581 C6.83937941,6.15515272 8.72897601,5.2266245 10.3927813,4.64264113 C12.0565866,4.05865776 14.5760488,3.43963894 17.9511677,2.78558468 L29.2887473,0.928528226 L39.6815287,0 L51.0191083,0.928528226 L59.522293,2.78558468 L70.8598726,5.57116935 L81.2526539,8.35675403 L87.866242,10.2138105 L95.4246285,11.1423387 C99.2905657,11.5266012 101.810028,11.5266012 102.983015,11.1423387 C104.156002,10.7580762 105.1008,11.0675857 105.81741,12.0708669 L131.326964,60.3543347 L171.953291,56.6402218 L180.456476,73.3537298 Z" id="Path-4" fill="url(#linearGradient-2)"></path>
                        <path d="M180.456476,86.353125 L184.235669,92.8528226 L187.070064,97.4954637 L189.904459,101.209577 L191.794055,103.995161 L192.738854,104.92369 L194.62845,102.138105 L198.407643,99.3525202 L202.186837,97.4954637 L208.800425,96.5669355 L212.579618,96.5669355 L216.358811,96.5669355 L222.027601,97.4954637 L223.917197,97.4954637 L222.972399,93.7813508 C221.57416,91.5313238 220.629361,89.9837768 220.138004,89.1387097 C219.646647,88.2936426 218.701849,87.055605 217.303609,85.4245968 L215.414013,82.6390121 L210.690021,81.7104839 L205.96603,81.7104839 L200.29724,81.7104839 L190.849257,82.6390121 L184.235669,84.4960685 L180.456476,86.353125 Z" id="Path-6" fill="#DD278F"></path>
                        <polygon id="Path-5" fill="url(#linearGradient-3)" points="171.953291 56.6402218 187.070064 54.7831653 199.352442 53.8546371 223.917197 51.9975806 246.592357 95.6384073 237.144374 90.0672379 230.530786 86.353125 223.917197 84.4960685 215.414013 83.5675403 203.131635 82.6390121 192.738854 83.5675403 183.29087 85.4245968 173.842887 88.2101815 164.394904 90.0672379 155.89172 91.9242944 141.719745 96.5669355 131.326964 100.281048 117.154989 104.92369 106.762208 107.709274 97.3142251 108.637802 82.1974522 108.637802 71.8046709 108.637802 62.3566879 106.780746 51.9639066 103.995161 44.4055202 100.281048 42.5159236 97.4954637 39.6815287 93.7813508 39.6815287 90.0672379 45.3503185 84.4960685 51.0191083 81.7104839 58.5774947 78.9248992 66.1358811 77.996371 71.8046709 77.996371 76.5286624 77.996371 85.9766454 78.9248992 91.6454352 79.8534274 98.2590234 80.7819556 106.762208 82.6390121 114.320594 84.4960685 124.713376 86.353125 132.271762 88.2101815 142.664544 89.1387097 150.22293 89.1387097 161.56051 87.2816532 170.063694 84.4960685 176.677282 79.8534274 179.511677 72.4252016"></polygon>
                        <polygon id="Path-3" fill="#781956" points="131.326964 61.2828629 147.388535 59.4258065 161.56051 57.56875 171.953291 56.6402218 176.677282 64.9969758 179.511677 71.4966734 179.511677 72.4252016 175.732484 69.6396169 171.008493 66.8540323 166.284501 64.9969758 160.615711 63.1399194 154.002123 62.2113911 149.278132 61.2828629 137.940552 61.2828629"></polygon>
                        <polyline id="Path-8" stroke="#E5BBEE" points="106.762208 15.7849798 101.093418 16.7135081 94.4798301 16.7135081 85.0318471 14.8564516 74.6390658 12.9993952 67.0806794 11.1423387 58.5774947 9.28528226 51.0191083 7.42822581 44.4055202 6.49969758 37.7919321 7.42822581 31.1783439 7.42822581 22.6751592 9.28528226 14.1719745 11.1423387 8.50318471 16.7135081 3.77919321 23.2132056"></polyline>
                        <polyline id="Path" stroke="#E5BBEE" points="34.9575372 82.6390121 44.4055202 74.2822581 53.8535032 69.6396169 62.3566879 66.8540323 78.418259 65.925504 90.7006369 67.7825605 102.983015 71.4966734 113.375796 75.2107863 126.602972 78.9248992 139.830149 79.8534274 150.22293 79.8534274 164.394904 77.996371 170.063694 73.3537298 173.842887 67.7825605"></polyline>
                        <polyline id="Path-9" stroke="#E5BBEE" points="188.014862 97.4954637 193.683652 91.9242944 202.186837 89.1387097 212.579618 88.2101815 221.082803 90.0672379"></polyline>
                    </g>
                    <g id="Group-3" transform="translate(766.638608, 93.362500) scale(-1, 1) translate(-766.638608, -93.362500) translate(643.277217, 35.862500)">
                        <polygon id="Path-7" fill="#8C2066" points="215.414013 83.5675403 223.917197 84.4960685 231.475584 86.353125 237.144374 89.1387097 246.592357 94.709879 246.592357 101.209577 245.647558 104.92369 240.923567 108.637802 233.36518 111.423387 225.806794 113.280444 217.303609 114.208972 208.800425 113.280444 202.186837 112.351915 196.518047 109.566331 192.738854 104.92369 195.573248 100.281048 202.186837 97.4954637 208.800425 96.5669355 217.303609 96.5669355 223.917197 97.4954637 222.972399 93.7813508 220.138004 90.9957661"></polygon>
                        <path d="M180.456476,73.3537298 L177.622081,80.7819556 L171.953291,85.4245968 L159.670913,89.1387097 L145.498938,90.9957661 L131.326964,89.1387097 L113.375796,85.4245968 L103.927813,83.5675403 L90.7006369,80.7819556 L77.4734607,78.9248992 L64.2462845,78.9248992 L52.9087049,80.7819556 L45.3503185,85.4245968 L39.6815287,90.9957661 L39.6815287,93.7813508 L0,16.7135081 L4.72399151,7.42822581 C6.83937941,6.15515272 8.72897601,5.2266245 10.3927813,4.64264113 C12.0565866,4.05865776 14.5760488,3.43963894 17.9511677,2.78558468 L29.2887473,0.928528226 L39.6815287,0 L51.0191083,0.928528226 L59.522293,2.78558468 L70.8598726,5.57116935 L81.2526539,8.35675403 L87.866242,10.2138105 L95.4246285,11.1423387 C99.2905657,11.5266012 101.810028,11.5266012 102.983015,11.1423387 C104.156002,10.7580762 105.1008,11.0675857 105.81741,12.0708669 L131.326964,60.3543347 L171.953291,56.6402218 L180.456476,73.3537298 Z" id="Path-4" fill="url(#linearGradient-2)"></path>
                        <path d="M180.456476,86.353125 L184.235669,92.8528226 L187.070064,97.4954637 L189.904459,101.209577 L191.794055,103.995161 L192.738854,104.92369 L194.62845,102.138105 L198.407643,99.3525202 L202.186837,97.4954637 L208.800425,96.5669355 L212.579618,96.5669355 L216.358811,96.5669355 L222.027601,97.4954637 L223.917197,97.4954637 L222.972399,93.7813508 C221.57416,91.5313238 220.629361,89.9837768 220.138004,89.1387097 C219.646647,88.2936426 218.701849,87.055605 217.303609,85.4245968 L215.414013,82.6390121 L210.690021,81.7104839 L205.96603,81.7104839 L200.29724,81.7104839 L190.849257,82.6390121 L184.235669,84.4960685 L180.456476,86.353125 Z" id="Path-6" fill="#DD278F"></path>
                        <polygon id="Path-5" fill="url(#linearGradient-3)" points="171.953291 56.6402218 187.070064 54.7831653 199.352442 53.8546371 223.917197 51.9975806 246.592357 95.6384073 237.144374 90.0672379 230.530786 86.353125 223.917197 84.4960685 215.414013 83.5675403 203.131635 82.6390121 192.738854 83.5675403 183.29087 85.4245968 173.842887 88.2101815 164.394904 90.0672379 155.89172 91.9242944 141.719745 96.5669355 131.326964 100.281048 117.154989 104.92369 106.762208 107.709274 97.3142251 108.637802 82.1974522 108.637802 71.8046709 108.637802 62.3566879 106.780746 51.9639066 103.995161 44.4055202 100.281048 42.5159236 97.4954637 39.6815287 93.7813508 39.6815287 90.0672379 45.3503185 84.4960685 51.0191083 81.7104839 58.5774947 78.9248992 66.1358811 77.996371 71.8046709 77.996371 76.5286624 77.996371 85.9766454 78.9248992 91.6454352 79.8534274 98.2590234 80.7819556 106.762208 82.6390121 114.320594 84.4960685 124.713376 86.353125 132.271762 88.2101815 142.664544 89.1387097 150.22293 89.1387097 161.56051 87.2816532 170.063694 84.4960685 176.677282 79.8534274 179.511677 72.4252016"></polygon>
                        <polygon id="Path-3" fill="#781956" points="131.326964 61.2828629 147.388535 59.4258065 161.56051 57.56875 171.953291 56.6402218 176.677282 64.9969758 179.511677 71.4966734 179.511677 72.4252016 175.732484 69.6396169 171.008493 66.8540323 166.284501 64.9969758 160.615711 63.1399194 154.002123 62.2113911 149.278132 61.2828629 137.940552 61.2828629"></polygon>
                        <polyline id="Path-8" stroke="#E5BBEE" points="106.762208 15.7849798 101.093418 16.7135081 94.4798301 16.7135081 85.0318471 14.8564516 74.6390658 12.9993952 67.0806794 11.1423387 58.5774947 9.28528226 51.0191083 7.42822581 44.4055202 6.49969758 37.7919321 7.42822581 31.1783439 7.42822581 22.6751592 9.28528226 14.1719745 11.1423387 8.50318471 16.7135081 3.77919321 23.2132056"></polyline>
                        <polyline id="Path" stroke="#E5BBEE" points="34.9575372 82.6390121 44.4055202 74.2822581 53.8535032 69.6396169 62.3566879 66.8540323 78.418259 65.925504 90.7006369 67.7825605 102.983015 71.4966734 113.375796 75.2107863 126.602972 78.9248992 139.830149 79.8534274 150.22293 79.8534274 164.394904 77.996371 170.063694 73.3537298 173.842887 67.7825605"></polyline>
                        <polyline id="Path-9" stroke="#E5BBEE" points="188.014862 97.4954637 193.683652 91.9242944 202.186837 89.1387097 212.579618 88.2101815 221.082803 90.0672379"></polyline>
                    </g>
                    <polygon id="Path-2" fill="#DD278F" points="90.7006369 19.4376202 257.207147 4.62800481 382.087029 -4.29167812e-13 499.398434 -4.29167812e-13 607.249241 4.62800481 692.394615 8.33040865 799.299363 19.4376202 759.564855 96.2625 732.129123 93.4856971 661.174645 87.0064904 589.274106 82.3784856 526.834165 79.6016827 460.609985 79.6016827 415.199119 79.6016827 356.543417 79.6016827 306.402252 82.3784856 257.207147 85.1552885 225.041116 87.0064904 189.090847 89.7832933 130.435145 96.2625 90.7006369 20.3632212"></polygon>
                    <path d="M126.602972,72.6148985 L159.670913,76.1744927 L191.794055,79.7340868 L230.530786,82.4037824 L271.157113,85.073478 L337.292994,87.7431736 L395.870488,88.6330721 C408.965556,88.5271682 419.67327,88.5271682 427.993631,88.6330721 C436.313991,88.738976 449.226235,88.738976 466.730361,88.6330721 C481.533263,88.7380191 492.55591,88.7380191 499.798301,88.6330721 C507.040693,88.5281251 518.693205,88.2314923 534.755839,87.7431736 L571.602972,86.853275 L614.118896,84.1835794 L677.420382,80.6239853 C688.373009,79.7052516 697.506059,78.815353 704.819533,77.9542897 C712.133006,77.0932264 723.155653,75.906695 737.887473,74.3946956 L761.507431,71.725" id="Path-10" stroke="#E5BBEE" stroke-linecap="round" stroke-linejoin="bevel" transform="translate(444.055202, 80.218750) rotate(-180.000000) translate(-444.055202, -80.218750) "></path>
                    <path d="M96.3694268,9.3484556 L159.670913,15.6430502 L191.794055,19.2399614 L230.530786,21.9376448 L271.157113,24.6353282 L337.292994,27.3330116 L395.870488,28.2322394 C408.965556,28.1252253 419.67327,28.1252253 427.993631,28.2322394 C436.313991,28.3392535 449.226235,28.3392535 466.730361,28.2322394 C481.533263,28.3382866 492.55591,28.3382866 499.798301,28.2322394 C507.040693,28.1261922 518.693205,27.8264496 534.755839,27.3330116 L571.602972,26.4337838 L614.118896,23.7361004 L677.420382,20.1391892 C688.373009,19.2108239 697.506059,18.3115961 704.819533,17.4415058 C712.133006,16.5714155 723.155653,15.3724451 737.887473,13.8445946 L761.507431,11.1469112 L781.348195,9.3484556 L793.630573,7.55" id="Path-10" stroke="#E5BBEE" stroke-linecap="round" stroke-linejoin="bevel" transform="translate(445.000000, 17.931250) rotate(-180.000000) translate(-445.000000, -17.931250) "></path>
                </g>
                <text id="Princess" font-family="Apple-Chancery, Apple Chancery" font-size="57" font-weight="normal" fill="#FFFFFF">
                    <tspan x="347.782715" y="64">Princess</tspan>
                </text>
                <g id="Colouring-Book" fill="#FFFFFF" fill-opacity="1">
                    <use filter="url(#filter-5)" xlink:href="#text-4"></use>
                    <use xlink:href="#text-4"></use>
                </g>
            </g>
        </g>
    </g>
</svg>